<svg id="0cf1c565-d6bd-44cb-8824-fe8e3bbc47df" data-name="Capa 1" xmlns="http://www.w3.org/2000/svg" width="100" height="100" viewBox="0 0 100 100"><title>cloud-moon</title><path d="M79.42,47.07h0A18,18,0,0,1,64.69,75.39h-24A24,24,0,1,1,49.22,29h0A17.88,17.88,0,0,1,69.5,17.21a12.44,12.44,0,0,0-.31,2.68,12,12,0,0,0,12,12,11.84,11.84,0,0,0,2.68-.31,17.81,17.81,0,0,1-4.45,15.49ZM22.7,51.39a18,18,0,0,0,18,18h24a12,12,0,0,0,0-24,11.88,11.88,0,0,0-6.5,1.94A18,18,0,0,0,22.7,51.39ZM52,30.25Zm11.49-7a12,12,0,0,0-8.89,8.67h0a24.07,24.07,0,0,1,7,7.83,18.12,18.12,0,0,1,3-.31A17.86,17.86,0,0,1,75.2,42.8h0a12,12,0,0,0,2.68-5.23A18,18,0,0,1,63.51,23.2Z"/></svg>