<svg id="2703e5e6-7187-4b2f-b14d-da5b29f1109f" data-name="Capa 1" xmlns="http://www.w3.org/2000/svg" width="100" height="100" viewBox="0 0 100 100"><title>cloud-drizzle-moon</title><path d="M79.42,44.07h0a18,18,0,0,1-8.73,27.27V64.77a12,12,0,1,0-12.5-20.44A18,18,0,1,0,28.7,61.78v7.37A24,24,0,0,1,49.22,26h0A17.88,17.88,0,0,1,69.5,14.21a12.44,12.44,0,0,0-.31,2.68,12,12,0,0,0,12,12,11.84,11.84,0,0,0,2.68-.31,17.81,17.81,0,0,1-4.45,15.49ZM63.51,20.21a12,12,0,0,0-8.89,8.66h0a24.07,24.07,0,0,1,7,7.83,18.12,18.12,0,0,1,3-.31A17.86,17.86,0,0,1,75.2,39.8h0a12,12,0,0,0,2.68-5.22A18,18,0,0,1,63.51,20.21ZM37.69,54.39a3,3,0,0,1,3,3v6a3,3,0,0,1-6,0v-6A3,3,0,0,1,37.69,54.39Zm0,18a3,3,0,0,1,3,3v6a3,3,0,0,1-6,0v-6A3,3,0,0,1,37.69,72.39Zm12-12a3,3,0,0,1,3,3v6a3,3,0,0,1-6,0v-6A3,3,0,0,1,49.69,60.39Zm0,18a3,3,0,0,1,3,3v6a3,3,0,0,1-6,0v-6A3,3,0,0,1,49.69,78.39Zm12-24a3,3,0,0,1,3,3v6a3,3,0,0,1-6,0v-6A3,3,0,0,1,61.69,54.39Zm0,18a3,3,0,0,1,3,3v6a3,3,0,0,1-6,0v-6A3,3,0,0,1,61.69,72.39Z"/></svg>