<svg id="1f47aeff-a66e-42fa-847a-6fc9f2509ee5" data-name="Capa 1" xmlns="http://www.w3.org/2000/svg" width="100" height="100" viewBox="0 0 100 100"><title>pressure</title><path d="M50,17A31,31,0,1,0,81,48,31,31,0,0,0,50,17Zm0,56A25,25,0,1,1,75,48,25,25,0,0,1,50,73Z"/><rect x="48" y="29" width="4" height="4"/><rect x="65" y="46" width="4" height="4"/><rect x="35.98" y="33.98" width="4" height="4" transform="translate(-14.32 37.4) rotate(-45)"/><rect x="31" y="46" width="4" height="4"/><path d="M62.56,29.83,49.58,50a6,6,0,1,0,5.61,3l9.48-22Z"/></svg>