<svg id="2c010692-72cf-4315-a98e-c1aeac388ff9" data-name="Capa 1" xmlns="http://www.w3.org/2000/svg" width="100" height="100" viewBox="0 0 100 100"><title>cloud-drizzle-sun</title><path d="M92.44,41.64h-6a3,3,0,0,1,0-6h6a3,3,0,0,1,0,6Zm-11.79-20a3,3,0,0,1-4.24-4.24l4.24-4.24a3,3,0,0,1,4.25,4.24ZM76.23,45.08h0a18,18,0,0,1-7.79,28.51V67a12,12,0,1,0-12.5-20.44A18,18,0,1,0,26.45,64V71.4A24,24,0,0,1,45.23,27.62a18,18,0,0,1,31,17.46ZM59.44,26.64A11.94,11.94,0,0,0,51,30.17,24.09,24.09,0,0,1,59.39,39a17.19,17.19,0,0,1,11.83,2h0a12.26,12.26,0,0,0,.22-2.29A12,12,0,0,0,59.44,26.64Zm0-12a3,3,0,0,1-3-3v-6a3,3,0,1,1,6,0v6A3,3,0,0,1,59.44,14.64Zm-21.21,7L34,17.43a3,3,0,1,1,4.24-4.24l4.24,4.24a3,3,0,0,1-4.24,4.24Zm-2.78,35a3,3,0,0,1,3,3v6a3,3,0,0,1-6,0v-6A3,3,0,0,1,35.45,56.64Zm0,18a3,3,0,0,1,3,3v6a3,3,0,0,1-6,0v-6A3,3,0,0,1,35.45,74.64Zm12-12a3,3,0,0,1,3,3v6a3,3,0,0,1-6,0v-6A3,3,0,0,1,47.44,62.64Zm0,18a3,3,0,0,1,3,3v6a3,3,0,0,1-6,0v-6A3,3,0,0,1,47.44,80.64Zm12-24a3,3,0,0,1,3,3v6a3,3,0,0,1-6,0v-6A3,3,0,0,1,59.44,56.64Zm0,18a3,3,0,0,1,3,3v6a3,3,0,0,1-6,0v-6A3,3,0,0,1,59.44,74.64Z"/></svg>