<svg id="1fb1397f-fe78-47fe-8c2c-17fcd3c8599b" data-name="Capa 1" xmlns="http://www.w3.org/2000/svg" width="100" height="100" viewBox="0 0 100 100"><title>cloud-rain-moon</title><path d="M49.75,60.39a3,3,0,0,0-3,3v24a3,3,0,0,0,6,0v-24A3,3,0,0,0,49.75,60.39Zm12-6a3,3,0,0,0-3,3v24a3,3,0,0,0,6,0v-24A3,3,0,0,0,61.75,54.39Zm-24,0a3,3,0,0,0-3,3v24a3,3,0,0,0,6,0v-24A3,3,0,0,0,37.75,54.39Zm46.5-22.5a18.12,18.12,0,0,0-.32-3.31,11.84,11.84,0,0,1-2.68.31A12,12,0,0,1,69.56,14.21,18,18,0,0,0,49.27,26,24,24,0,0,0,28.75,69.15V61.78a18,18,0,1,1,29.5-17.45,11.86,11.86,0,0,1,6.5-1.94,12,12,0,0,1,6,22.38v6.57a18,18,0,0,0,8.73-27.27A18,18,0,0,0,84.25,31.89Zm-9,7.91A17.25,17.25,0,0,0,61.7,36.7a24.18,24.18,0,0,0-7-7.83,12,12,0,0,1,8.89-8.66A18,18,0,0,0,77.93,34.58,12,12,0,0,1,75.26,39.8Z"/></svg>