<svg id="83d2209a-3dab-433c-b144-64280b892cbb" data-name="Capa 1" xmlns="http://www.w3.org/2000/svg" width="100" height="100" viewBox="0 0 100 100"><title>snowflake</title><path d="M74.25,61.11l-5.27-3,3.32-1.32a2.5,2.5,0,1,0-1.85-4.64l-7,2.78L55,50l8.47-4.89,7,2.77a2.46,2.46,0,0,0,.92.17,2.5,2.5,0,0,0,.93-4.82L69,41.92l5.26-3a2.5,2.5,0,1,0-2.5-4.33l-5.27,3L67,34.07a2.5,2.5,0,1,0-5-.73L61,40.78,52.5,45.67V35.88l5.88-4.64a2.5,2.5,0,0,0-3.1-3.93l-2.78,2.2V23.44a2.5,2.5,0,1,0-5,0v6.09l-2.8-2.22a2.5,2.5,0,0,0-3.1,3.93l5.9,4.66v9.77L39,40.78l-1.09-7.42a2.5,2.5,0,0,0-4.95.73l.52,3.5-5.26-3a2.5,2.5,0,1,0-2.5,4.33l5.27,3L27.7,43.25a2.5,2.5,0,1,0,1.85,4.64l7-2.78L45,50l-8.47,4.89-7-2.77a2.5,2.5,0,0,0-1.85,4.65L31,58.08l-5.26,3A2.5,2.5,0,0,0,27,65.78a2.45,2.45,0,0,0,1.25-.34l5.27-3L33,65.93a2.51,2.51,0,0,0,2.11,2.84l.37,0A2.49,2.49,0,0,0,38,66.66L39,59.22l8.46-4.89v9.79l-5.88,4.64a2.5,2.5,0,0,0-.41,3.51,2.51,2.51,0,0,0,3.51.42l2.78-2.2v6.07a2.5,2.5,0,0,0,5,0V70.47l2.8,2.22a2.5,2.5,0,0,0,3.1-3.93L52.5,64.1V54.33L61,59.22l1.09,7.42a2.5,2.5,0,0,0,2.47,2.14l.37,0A2.51,2.51,0,0,0,67,65.91l-.52-3.5,5.26,3a2.45,2.45,0,0,0,1.25.34,2.5,2.5,0,0,0,1.25-4.67Z"/></svg>