<svg id="c75e8431-addb-4072-8e4f-7b0fd2266e2c" data-name="Capa 1" xmlns="http://www.w3.org/2000/svg" width="100" height="100" viewBox="0 0 100 100"><title>sun</title><path d="M83,53H77a3,3,0,0,1,0-6h6a3,3,0,0,1,0,6ZM71.21,33A3,3,0,0,1,67,28.79l4.24-4.24a3,3,0,0,1,4.25,4.24ZM50,68A18,18,0,1,1,68,50,18,18,0,0,1,50,68Zm0-30A12,12,0,1,0,62,50,12,12,0,0,0,50,38Zm0-12a3,3,0,0,1-3-3V17a3,3,0,0,1,6,0v6A3,3,0,0,1,50,26ZM28.79,33l-4.24-4.24a3,3,0,0,1,4.24-4.24L33,28.79A3,3,0,0,1,28.79,33ZM26,50a3,3,0,0,1-3,3H17a3,3,0,0,1,0-6h6A3,3,0,0,1,26,50Zm2.79,17A3,3,0,0,1,33,71.21l-4.24,4.24a3,3,0,0,1-4.24-4.24ZM50,74a3,3,0,0,1,3,3v6a3,3,0,0,1-6,0V77A3,3,0,0,1,50,74Zm21.21-7,4.25,4.24a3,3,0,0,1-4.25,4.24L67,71.21A3,3,0,0,1,71.21,67Z"/></svg>