<svg id="0e32b8af-b2f9-4d45-b3c2-d90e22aa26b9" data-name="Capa 1" xmlns="http://www.w3.org/2000/svg" width="100" height="100" viewBox="0 0 100 100"><title>sunrise</title><path d="M33,37.79l-4.24-4.24a3,3,0,0,0-4.24,4.24L28.79,42A3,3,0,0,0,33,37.79ZM83,56H77a3,3,0,0,0,0,6h6a3,3,0,0,0,0-6ZM23,56H17a3,3,0,0,0,0,6h6a3,3,0,0,0,0-6ZM65,71H35a3,3,0,0,0,0,6H65a3,3,0,0,0,0-6ZM75.45,33.55a3,3,0,0,0-4.24,0L67,37.79A3,3,0,0,0,71.21,42l4.24-4.24A3,3,0,0,0,75.45,33.55ZM50,35a3,3,0,0,0,3-3V26a3,3,0,0,0-6,0v6A3,3,0,0,0,50,35Zm0,6A18,18,0,0,0,32,59a17.81,17.81,0,0,0,1,6h6.57a12,12,0,1,1,20.76,0H67a17.81,17.81,0,0,0,1-6A18,18,0,0,0,50,41Zm0,24.37a1.5,1.5,0,0,0,1.5-1.5V58.13l3.8,3.81a1.51,1.51,0,0,0,2.13-2.13l-6.37-6.36a1.49,1.49,0,0,0-2.12,0l-6.36,6.36a1.5,1.5,0,0,0,2.12,2.13l3.8-3.81v5.74A1.5,1.5,0,0,0,50,65.37Z"/></svg>