<svg id="8ff62442-ba4a-4643-84d8-b312f7e1b5be" data-name="Capa 1" xmlns="http://www.w3.org/2000/svg" width="100" height="100" viewBox="0 0 100 100"><title>sunset</title><path d="M83,62H77a3,3,0,0,1,0-6h6a3,3,0,0,1,0,6ZM71.21,42A3,3,0,0,1,67,37.79l4.24-4.24a3,3,0,0,1,4.24,4.24ZM67,65H60.38a12,12,0,1,0-20.76,0H33.05a17.81,17.81,0,0,1-1-6,18,18,0,0,1,36,0A17.81,17.81,0,0,1,67,65ZM50,35a3,3,0,0,1-3-3V26a3,3,0,0,1,6,0v6A3,3,0,0,1,50,35ZM28.79,42l-4.24-4.24a3,3,0,0,1,4.24-4.24L33,37.79A3,3,0,0,1,28.79,42ZM26,59a3,3,0,0,1-3,3H17a3,3,0,0,1,0-6h6A3,3,0,0,1,26,59Zm24-6a1.5,1.5,0,0,1,1.5,1.5v5.74l3.8-3.8a1.5,1.5,0,0,1,2.13,2.12l-6.37,6.36a1.49,1.49,0,0,1-2.12,0l-6.36-6.36a1.5,1.5,0,0,1,2.12-2.12l3.8,3.8V54.5A1.5,1.5,0,0,1,50,53ZM35,71H65a3,3,0,0,1,0,6H35a3,3,0,0,1,0-6Z"/></svg>