<svg id="6680d7b3-f699-4097-80e7-212e3e7ee6f7" data-name="Capa 1" xmlns="http://www.w3.org/2000/svg" width="100" height="100" viewBox="0 0 100 100"><title>cloud-lightning-moon</title><path d="M79.48,44.07h0a17.9,17.9,0,0,1,3,7.32h0a18.59,18.59,0,0,1,.27,3,18,18,0,0,1-18,18H63.16l5.37-6.62a12,12,0,0,0,8.22-11.38,11.86,11.86,0,0,0-.4-3h0a11.94,11.94,0,0,0-18.1-7.06,18,18,0,0,0-35.5,4.06,18.49,18.49,0,0,0,.27,3h0A18,18,0,0,0,35.66,65.65l-2,5.67A24,24,0,0,1,17,51.39h0a24.63,24.63,0,0,1-.21-3A24,24,0,0,1,49.27,26h0A18,18,0,0,1,69.56,14.21,12,12,0,0,0,83.93,28.58a17.81,17.81,0,0,1-4.45,15.49ZM63.57,20.21a12,12,0,0,0-8.89,8.66h0a24.18,24.18,0,0,1,7,7.83,18.12,18.12,0,0,1,3-.31A17.93,17.93,0,0,1,75.26,39.8h0a12.05,12.05,0,0,0,2.68-5.22A18,18,0,0,1,63.57,20.21ZM46.75,51.39h15l-9,15h10.5l-19.5,24,5.4-18h-9.9Z"/></svg>