<svg id="c8ca5670-d54c-46b5-99f6-9371f285f2d7" data-name="Capa 1" xmlns="http://www.w3.org/2000/svg" width="100" height="100" viewBox="0 0 100 100"><title>cloud-sun</title><path d="M92.44,44.64h-6a3,3,0,0,1,0-6h6a3,3,0,0,1,0,6Zm-11.79-20a3,3,0,0,1-4.24-4.24l4.24-4.24a3,3,0,0,1,4.25,4.24ZM76.23,48.08h0A18,18,0,0,1,62.44,77.64h-24a24,24,0,1,1,6.78-47,18,18,0,0,1,31,17.46ZM20.45,53.64a18,18,0,0,0,18,18h24a12,12,0,0,0,0-24,11.88,11.88,0,0,0-6.5,1.94,18,18,0,0,0-35.49,4.06Zm39-24A11.94,11.94,0,0,0,51,33.17,24.09,24.09,0,0,1,59.39,42a17.19,17.19,0,0,1,11.83,2h0a12.35,12.35,0,0,0,.22-2.29A12,12,0,0,0,59.44,29.64Zm0-12a3,3,0,0,1-3-3v-6a3,3,0,0,1,6,0v6A3,3,0,0,1,59.44,17.64Zm-21.21,7L34,20.43a3,3,0,0,1,4.24-4.24l4.24,4.24a3,3,0,0,1-4.24,4.24Z"/></svg>